# xmcd
#
# Track frame offsets:
#	150
#	9851
#	21675
#	31489
#	48868
#	64352
#	76409
#	87639
#	101272
#	115665
#	137823
#	153227
#	165321
#	183782
#	197715
#	218710
#	233800
#	247017
#
# Disc length: 3413 seconds
#
# Revision: 0
# Processed by: cddbd v1.5.1PL2 Copyright (c) Steve Scherf et al.
# Submitted via: EasyCDDAExtractor 9.0.0.1
#
DISCID=e70d5312
DTITLE=Jeff Jenkins - Honeydew
DYEAR=2002
DGENRE=Blues
TTITLE0=Latinsh Etude
TTITLE1=Little Groove In A
TTITLE2=Allemande
TTITLE3=32-20 Blues
TTITLE4=Love In Vain
TTITLE5=Moonshine
TTITLE6=My Old Woods
TTITLE7=Hillbilly Etude
TTITLE8=Rag #2
TTITLE9=Nobody Knows You When You're Down And Out
TTITLE10=Tombeau de Mi Mouton
TTITLE11=Improv On A Cash Money
TTITLE12=Jim Lee Blues
TTITLE13=Diving Duck Blues
TTITLE14=In The Bleak Midwinter
TTITLE15=Easier This Way
TTITLE16=Honeydew Song
TTITLE17=Orange Lamplight
EXTD=
EXTT0=
EXTT1=
EXTT2=
EXTT3=
EXTT4=
EXTT5=
EXTT6=
EXTT7=
EXTT8=
EXTT9=
EXTT10=
EXTT11=
EXTT12=
EXTT13=
EXTT14=
EXTT15=
EXTT16=
EXTT17=
PLAYORDER=
